<svg width="32" height="32" viewBox="0 0 32 32" fill="none" xmlns="http://www.w3.org/2000/svg">
<g clip-path="url(#clip0_1926_242)">
<path d="M6.88343 24.8551L4.60548 22.3897L3.36746 28.371C3.36746 28.3744 3.36989 28.3771 3.37288 28.3771L9.30995 27.3205C7.87385 25.8614 7.57672 25.5595 6.88343 24.8551Z" fill="#45D354"/>
<path d="M29.5144 15.7482C29.5144 23.501 23.3287 29.7859 15.6981 29.7859C8.0676 29.7859 1.88184 23.501 1.88184 15.7482C1.88184 7.99536 8.0676 1.71045 15.6981 1.71045C23.3287 1.71045 29.5144 7.99536 29.5144 15.7482Z" fill="#45D354"/>
<path d="M20.113 17.8866C19.8159 17.6853 19.5188 17.5847 19.2216 17.9872L18.0331 19.5972C17.736 19.7985 17.5379 19.8991 17.1418 19.6979C15.6561 18.8928 13.5763 17.9872 11.7935 14.9683C11.6945 14.5658 11.8926 14.3645 12.0906 14.1633L12.982 12.7545C13.1801 12.5532 13.0811 12.352 12.982 12.1507L11.7935 9.23247C11.4964 8.42744 11.1993 8.52807 10.9021 8.52807H10.1098C9.91172 8.52807 9.51556 8.6287 9.11939 9.03121C6.94048 11.245 7.83185 14.3645 9.41651 16.3771C9.71364 16.7796 11.6945 20.4023 15.9533 22.3142C19.1226 23.723 19.8159 23.5218 20.7072 23.3205C21.7967 23.2199 22.8862 22.3142 23.3814 21.4086C23.4804 21.1067 23.9756 19.7985 23.5795 19.5972M15.7552 29.0564C11.6945 29.0564 8.62418 26.8425 8.62418 26.8425L3.77115 28.1507L4.95965 23.3205C4.95965 23.3205 2.97881 20.201 2.97881 16.2765C2.97881 9.03121 8.82226 2.99348 16.0523 2.99348C22.7871 2.99348 28.5315 8.32681 28.5315 15.7734C28.5315 23.0186 22.7871 28.9557 15.7552 29.0564ZM0.00756836 31.9746L8.22802 29.6601C10.6088 30.8985 13.2622 31.4962 15.9351 31.3962C18.6079 31.2962 21.2109 30.5018 23.4956 29.0888C25.7802 27.6759 27.6703 25.6915 28.9854 23.3252C30.3005 20.9589 30.9967 18.2896 31.0076 15.5721C31.0076 6.91801 24.2727 -0.0253906 15.7552 -0.0253906C13.0213 -0.0182844 10.3371 0.716379 7.96962 2.10544C5.60218 3.49449 3.63421 5.48947 2.2617 7.8917C0.889186 10.2939 0.160024 13.0196 0.146827 15.7972C0.13363 18.5748 0.836859 21.3075 2.18648 23.723" fill="white"/>
</g>
<defs>
<clipPath id="clip0_1926_242">
<rect width="32" height="32" fill="white"/>
</clipPath>
</defs>
</svg>
