<?xml version="1.0" encoding="UTF-8"?>
<!DOCTYPE svg PUBLIC "-//W3C//DTD SVG 1.1//EN" "http://www.w3.org/Graphics/SVG/1.1/DTD/svg11.dtd">
<svg xmlns="http://www.w3.org/2000/svg" version="1.1" viewBox="0 0 256 276"
fill="currentColor" style="shape-rendering:geometricPrecision; text-rendering:geometricPrecision; image-rendering:optimizeQuality; fill-rule:evenodd; clip-rule:evenodd" xmlns:xlink="http://www.w3.org/1999/xlink">
<g><path  d="M 248.5,103.5 C 248.911,112.183 249.578,120.849 250.5,129.5C 249.668,136.141 249.335,142.808 249.5,149.5C 249.322,152.216 248.822,154.883 248,157.5C 245.747,159.189 243.914,161.189 242.5,163.5C 240.973,163.427 239.973,164.094 239.5,165.5C 238.508,165.328 237.842,165.662 237.5,166.5C 236.508,166.328 235.842,166.662 235.5,167.5C 235.167,167.5 234.833,167.5 234.5,167.5C 233.903,167.265 233.57,166.765 233.5,166C 235.747,154.842 237.08,143.342 237.5,131.5C 233.486,131.666 229.486,131.499 225.5,131C 223.477,127.817 222.977,124.317 224,120.5C 224.5,120 225,119.5 225.5,119C 229.541,118.827 233.541,118.327 237.5,117.5C 234.786,101.3 229.62,85.9665 222,71.5C 221.196,70.1955 220.029,69.5288 218.5,69.5C 212.704,72.0985 206.704,74.0985 200.5,75.5C 198.088,75.5938 196.255,74.5938 195,72.5C 194.939,77.8185 193.939,83.1518 192,88.5C 187.036,91.2295 182.703,90.2295 179,85.5C 163.51,103.323 147.343,120.49 130.5,137C 127.5,139 124.5,139 121.5,137C 115.312,131.644 108.978,126.477 102.5,121.5C 93.7372,129.596 85.4039,137.929 77.5,146.5C 76.8333,146.5 76.1667,146.5 75.5,146.5C 71.1353,150.874 66.4686,155.041 61.5,159C 59.1902,159.497 56.8568,159.663 54.5,159.5C 49.2035,157.234 47.3702,153.234 49,147.5C 54.0443,139.449 60.211,132.283 67.5,126C 66.8333,125.333 66.1667,125.333 65.5,126C 61.2433,130.432 56.5767,134.265 51.5,137.5C 50.8333,137.167 50.1667,136.833 49.5,136.5C 48.9067,134.618 48.2401,132.785 47.5,131C 46.2068,130.51 44.8734,130.343 43.5,130.5C 34.8333,130.5 26.1667,130.5 17.5,130.5C 17.2053,132.735 17.5386,134.735 18.5,136.5C 19.1779,146.59 20.5112,156.59 22.5,166.5C 21.7573,167.182 21.0906,167.849 20.5,168.5C 18.901,168.768 17.5676,168.434 16.5,167.5C 17.552,167.649 18.552,167.483 19.5,167C 18.255,166.209 16.9217,165.709 15.5,165.5C 11.8112,162.971 8.97791,159.638 7,155.5C -2.49532,104.028 12.6713,61.5277 52.5,28C 92.0597,-0.552283 134.393,-5.21895 179.5,14C 216.998,32.664 239.998,62.4973 248.5,103.5 Z M 119.5,18.5 C 120.693,18.9704 121.36,19.9704 121.5,21.5C 121.38,38.4635 121.38,55.7969 121.5,73.5C 114.51,73.0009 107.51,72.6675 100.5,72.5C 91.2476,71.0676 81.9143,69.401 72.5,67.5C 73.0436,63.3268 74.2103,59.3268 76,55.5C 82.4944,42.6853 91.6611,32.1853 103.5,24C 108.606,21.4647 113.94,19.6314 119.5,18.5 Z M 71.5,121.5 C 71.5,120.5 71.5,119.5 71.5,118.5C 68.1667,118.5 64.8333,118.5 61.5,118.5C 61.6805,104.93 64.3472,91.5962 69.5,78.5C 78.8871,81.746 88.5538,83.4127 98.5,83.5C 100.831,84.3173 103.331,84.9839 106,85.5C 110.998,85.3458 116.165,85.3458 121.5,85.5C 121.176,92.3543 121.509,99.021 122.5,105.5C 123.601,106.598 124.934,106.765 126.5,106C 132.928,100.643 135.594,93.8101 134.5,85.5C 143.987,87.0214 150.654,83.3548 154.5,74.5C 147.866,73.5033 141.2,73.17 134.5,73.5C 134.333,55.1636 134.5,36.8303 135,18.5C 151.986,21.2453 164.486,30.2453 172.5,45.5C 176.928,49.7215 180.928,49.3882 184.5,44.5C 180.684,37.7054 176.017,31.5388 170.5,26C 187.85,32.8668 202.183,43.8668 213.5,59C 207.489,61.1252 201.656,63.6252 196,66.5C 195.625,61.7899 194.958,57.1232 194,52.5C 192.934,50.9005 191.434,49.9005 189.5,49.5C 177.414,51.3626 165.581,54.6959 154,59.5C 153.333,60.8333 153.333,62.1667 154,63.5C 156.833,66.3333 159.667,69.1667 162.5,72C 150.506,85.6599 138.173,98.9933 125.5,112C 124.092,112.315 122.759,111.982 121.5,111C 116.167,106.333 110.833,101.667 105.5,97C 103.167,96.3333 100.833,96.3333 98.5,97C 89.2846,105.054 80.2846,113.221 71.5,121.5 Z M 80.5,26.5 C 81.2389,26.369 81.9056,26.5357 82.5,27C 73.2493,38.2715 65.5827,50.6049 59.5,64C 53.6556,62.8857 47.989,61.0524 42.5,58.5C 47.6142,51.8833 53.2808,45.7166 59.5,40C 66.2251,34.977 73.2251,30.477 80.5,26.5 Z M 33.5,70.5 C 40.876,72.2912 48.2094,74.2912 55.5,76.5C 51.8795,90.2714 49.5462,104.271 48.5,118.5C 38.5,118.5 28.5,118.5 18.5,118.5C 20.6771,101.514 25.6771,85.514 33.5,70.5 Z M 164.5,139.5 C 167.649,139.415 170.316,140.415 172.5,142.5C 169.557,142.02 166.89,141.02 164.5,139.5 Z M 172.5,142.5 C 174.027,142.427 175.027,143.094 175.5,144.5C 173.973,144.573 172.973,143.906 172.5,142.5 Z M 175.5,144.5 C 177.027,144.427 178.027,145.094 178.5,146.5C 176.973,146.573 175.973,145.906 175.5,144.5 Z M 75.5,146.5 C 76.1667,146.5 76.8333,146.5 77.5,146.5C 77.1667,147.5 76.5,148.167 75.5,148.5C 75.5,147.833 75.5,147.167 75.5,146.5 Z"/></g>
<g><path  d="M 119.5,18.5 C 120.209,17.596 121.209,17.2627 122.5,17.5C 122.5,36.5 122.5,55.5 122.5,74.5C 115.492,74.6663 108.492,74.4996 101.5,74C 100.944,73.6174 100.611,73.1174 100.5,72.5C 107.51,72.6675 114.51,73.0009 121.5,73.5C 121.38,55.7969 121.38,38.4635 121.5,21.5C 121.36,19.9704 120.693,18.9704 119.5,18.5 Z"/></g>
<g><path  d="M 98.5,83.5 C 106.517,83.5012 114.517,83.8345 122.5,84.5C 122.5,91.5 122.5,98.5 122.5,105.5C 121.509,99.021 121.176,92.3543 121.5,85.5C 116.165,85.3458 110.998,85.3458 106,85.5C 103.331,84.9839 100.831,84.3173 98.5,83.5 Z"/></g>
<g><path  d="M 218.5,88.5 C 219.117,88.6107 219.617,88.944 220,89.5C 221.875,112.83 221.875,136.163 220,159.5C 216.709,162.727 212.709,164.394 208,164.5C 205.566,163.678 203.066,163.344 200.5,163.5C 200.158,162.662 199.492,162.328 198.5,162.5C 198.5,161.833 198.167,161.5 197.5,161.5C 197.158,160.662 196.492,160.328 195.5,160.5C 195.5,159.833 195.167,159.5 194.5,159.5C 194.5,158.833 194.167,158.5 193.5,158.5C 193.5,158.167 193.5,157.833 193.5,157.5C 193.333,135.164 193.5,112.831 194,90.5C 194.5,90 195,89.5 195.5,89C 203.159,88.5003 210.826,88.3336 218.5,88.5 Z"/></g>
<g><path  d="M 218.5,88.5 C 210.826,88.3336 203.159,88.5003 195.5,89C 195,89.5 194.5,90 194,90.5C 193.5,112.831 193.333,135.164 193.5,157.5C 192.337,135.004 192.17,112.337 193,89.5C 193.903,88.2986 195.069,87.4652 196.5,87C 202.833,86.3333 209.167,86.3333 215.5,87C 216.737,87.2321 217.737,87.7321 218.5,88.5 Z"/></g>
<g><path  d="M 248.5,103.5 C 249.887,108.839 250.887,114.339 251.5,120C 251.48,126.47 251.48,132.97 251.5,139.5C 250.903,142.971 250.236,146.305 249.5,149.5C 249.335,142.808 249.668,136.141 250.5,129.5C 249.578,120.849 248.911,112.183 248.5,103.5 Z"/></g>
<g><path  d="M 184.5,149.5 C 182.5,148.5 180.5,147.5 178.5,146.5C 178.027,145.094 177.027,144.427 175.5,144.5C 175.027,143.094 174.027,142.427 172.5,142.5C 170.316,140.415 167.649,139.415 164.5,139.5C 163.152,138.399 161.652,137.399 160,136.5C 159.794,130.116 159.294,123.783 158.5,117.5C 158.914,115.081 159.914,113.081 161.5,111.5C 168.805,110.483 176.139,110.317 183.5,111C 184.416,111.374 185.25,111.874 186,112.5C 186.167,118.667 186.333,124.833 186.5,131C 186.496,137.538 185.83,143.705 184.5,149.5 Z"/></g>
<g><path  d="M 184.5,149.5 C 185.83,143.705 186.496,137.538 186.5,131C 186.333,124.833 186.167,118.667 186,112.5C 185.25,111.874 184.416,111.374 183.5,111C 176.139,110.317 168.805,110.483 161.5,111.5C 161.611,110.883 161.944,110.383 162.5,110C 169.833,109.333 177.167,109.333 184.5,110C 185.931,110.465 187.097,111.299 188,112.5C 188.5,125.496 188.667,138.496 188.5,151.5C 186.62,151.771 185.287,151.104 184.5,149.5 Z"/></g>
<g><path  d="M 43.5,130.5 C 35.3501,131.493 27.0168,131.826 18.5,131.5C 18.5,133.167 18.5,134.833 18.5,136.5C 17.5386,134.735 17.2053,132.735 17.5,130.5C 26.1667,130.5 34.8333,130.5 43.5,130.5 Z"/></g>
<g><path  d="M 164.5,139.5 C 166.89,141.02 169.557,142.02 172.5,142.5C 172.973,143.906 173.973,144.573 175.5,144.5C 175.973,145.906 176.973,146.573 178.5,146.5C 181.567,149.882 184.901,153.048 188.5,156C 190.078,157.094 191.745,157.928 193.5,158.5C 194.167,158.5 194.5,158.833 194.5,159.5C 195.167,159.5 195.5,159.833 195.5,160.5C 195.842,161.338 196.508,161.672 197.5,161.5C 198.167,161.5 198.5,161.833 198.5,162.5C 198.842,163.338 199.508,163.672 200.5,163.5C 207.192,167.395 214.525,169.729 222.5,170.5C 226.852,170.341 230.852,169.341 234.5,167.5C 234.833,167.5 235.167,167.5 235.5,167.5C 236.492,167.672 237.158,167.338 237.5,166.5C 238.492,166.672 239.158,166.338 239.5,165.5C 241.027,165.573 242.027,164.906 242.5,163.5C 245.093,162.246 247.427,160.58 249.5,158.5C 250.15,158.196 250.817,157.863 251.5,157.5C 252.563,163.885 252.229,170.218 250.5,176.5C 250.547,179.573 249.381,181.906 247,183.5C 229.538,176.458 212.371,176.958 195.5,185C 194.271,186.529 192.771,187.696 191,188.5C 190.59,189.901 190.09,191.234 189.5,192.5C 187.955,193.23 187.122,194.563 187,196.5C 186.501,200.821 186.334,205.154 186.5,209.5C 177.387,209.626 168.387,208.96 159.5,207.5C 147.544,205.439 136.711,200.772 127,193.5C 117.525,201.321 106.692,205.987 94.5,207.5C 78.165,208.78 61.8316,208.78 45.5,207.5C 40.1667,207.833 40.1667,208.167 45.5,208.5C 50.2441,210.442 55.2441,211.942 60.5,213C 67.332,218.253 74.6654,222.753 82.5,226.5C 83.463,226.03 83.463,225.363 82.5,224.5C 82.9382,224.565 83.2716,224.399 83.5,224C 80.436,221.793 78.436,218.959 77.5,215.5C 82.6787,215.092 87.3454,216.425 91.5,219.5C 94.9378,221.759 98.2711,224.259 101.5,227C 105.224,228.862 108.891,230.696 112.5,232.5C 112.611,233.117 112.944,233.617 113.5,234C 116.827,234.61 120.161,235.11 123.5,235.5C 122.432,223.483 122.432,211.483 123.5,199.5C 124.191,197.978 125.358,196.978 127,196.5C 128.963,197.625 130.796,198.959 132.5,200.5C 134.697,211.778 135.031,223.112 133.5,234.5C 138.363,233.694 143.196,232.694 148,231.5C 148.772,231.645 149.439,231.978 150,232.5C 150.667,237.833 150.667,243.167 150,248.5C 148.301,249.406 146.467,249.739 144.5,249.5C 134.512,250.551 124.512,250.551 114.5,249.5C 83.8734,246.27 58.04,233.27 37,210.5C 36.5172,209.552 36.3505,208.552 36.5,207.5C 37.8734,207.657 39.2068,207.49 40.5,207C 14.0541,200.404 1.05414,183.57 1.5,156.5C 5.47241,157.949 8.80575,160.449 11.5,164C 12.745,164.791 14.0783,165.291 15.5,165.5C 15.8333,166.167 16.1667,166.833 16.5,167.5C 17.5676,168.434 18.901,168.768 20.5,168.5C 20.9175,169.222 21.5842,169.722 22.5,170C 27.3522,170.815 32.0189,170.648 36.5,169.5C 43.4006,168.087 50.0672,166.087 56.5,163.5C 63.3712,159.638 69.7046,154.971 75.5,149.5C 75.5,149.167 75.5,148.833 75.5,148.5C 76.5,148.167 77.1667,147.5 77.5,146.5C 94.8328,135.11 111.499,136.11 127.5,149.5C 138.179,140.08 150.512,136.747 164.5,139.5 Z M 242.5,163.5 C 242.027,164.906 241.027,165.573 239.5,165.5C 239.973,164.094 240.973,163.427 242.5,163.5 Z M 15.5,165.5 C 16.9217,165.709 18.255,166.209 19.5,167C 18.552,167.483 17.552,167.649 16.5,167.5C 16.1667,166.833 15.8333,166.167 15.5,165.5 Z"/></g>
<g><path  d="M 75.5,146.5 C 75.5,147.167 75.5,147.833 75.5,148.5C 74.1667,148.833 74.1667,149.167 75.5,149.5C 69.7046,154.971 63.3712,159.638 56.5,163.5C 56.9528,162.542 57.6195,161.708 58.5,161C 56.9419,160.79 55.6085,160.29 54.5,159.5C 56.8568,159.663 59.1902,159.497 61.5,159C 66.4686,155.041 71.1353,150.874 75.5,146.5 Z"/></g>
<g><path  d="M 250.5,176.5 C 252.229,170.218 252.563,163.885 251.5,157.5C 250.817,157.863 250.15,158.196 249.5,158.5C 250.183,156.824 251.517,156.157 253.5,156.5C 253.666,161.179 253.499,165.845 253,170.5C 252.76,172.852 251.927,174.852 250.5,176.5 Z"/></g>
<g><path  d="M 20.5,168.5 C 25.787,169.342 31.1203,169.676 36.5,169.5C 32.0189,170.648 27.3522,170.815 22.5,170C 21.5842,169.722 20.9175,169.222 20.5,168.5 Z"/></g>
<g><path  d="M 244.5,238.5 C 242.62,238.229 241.287,238.896 240.5,240.5C 239.209,240.263 238.209,240.596 237.5,241.5C 230.493,242.568 223.493,242.568 216.5,241.5C 215.4,237.558 215.233,233.558 216,229.5C 216.671,228.748 217.504,228.414 218.5,228.5C 220.042,227.699 221.708,227.366 223.5,227.5C 227.5,227.167 227.5,226.833 223.5,226.5C 221.833,226.5 220.167,226.5 218.5,226.5C 217.178,226.67 216.011,226.337 215,225.5C 214.138,227.087 213.471,228.754 213,230.5C 210.521,232.314 208.021,233.981 205.5,235.5C 207.787,235.276 209.953,234.609 212,233.5C 212.772,233.645 213.439,233.978 214,234.5C 214.667,238.5 214.667,242.5 214,246.5C 209.603,250.112 204.77,252.779 199.5,254.5C 194.848,254.998 190.181,255.331 185.5,255.5C 184.833,255.5 184.167,255.5 183.5,255.5C 183.167,255.5 182.833,255.5 182.5,255.5C 182.167,255.5 181.833,255.5 181.5,255.5C 176.833,255.167 172.167,254.833 167.5,254.5C 166.791,253.596 165.791,253.263 164.5,253.5C 163.791,252.596 162.791,252.263 161.5,252.5C 158.896,250.4 156.396,248.067 154,245.5C 152.566,241.594 152.233,237.594 153,233.5C 153.561,232.978 154.228,232.645 155,232.5C 157.279,233.391 159.446,234.391 161.5,235.5C 161.842,236.338 162.508,236.672 163.5,236.5C 166.314,238.096 169.314,238.596 172.5,238C 169.846,237.059 167.179,236.226 164.5,235.5C 164.158,234.662 163.492,234.328 162.5,234.5C 153.376,230.328 152.376,224.828 159.5,218C 164.133,215.258 169.133,213.591 174.5,213C 181.872,212.486 189.206,212.486 196.5,213C 195.234,212.691 194.067,212.191 193,211.5C 192.333,208.5 192.333,205.5 193,202.5C 194.32,202.201 195.82,202.034 197.5,202C 191.623,198.196 190.956,193.529 195.5,188C 213.502,179.405 231.169,179.405 248.5,188C 253.347,192.254 253.681,196.754 249.5,201.5C 250.325,202.386 251.325,202.719 252.5,202.5C 252.666,206.514 252.499,210.514 252,214.5C 251.215,216.286 250.049,217.786 248.5,219C 250.384,219.216 252.051,219.883 253.5,221C 254.863,228.995 251.863,234.829 244.5,238.5 Z M 202.5,205.5 C 204.308,205.491 205.975,205.991 207.5,207C 205.465,207.599 203.799,207.099 202.5,205.5 Z M 239.5,205.5 C 241.379,205.393 241.712,205.893 240.5,207C 237.125,207.632 236.791,207.132 239.5,205.5 Z M 163.5,236.5 C 163.5,235.833 163.833,235.5 164.5,235.5C 167.179,236.226 169.846,237.059 172.5,238C 169.314,238.596 166.314,238.096 163.5,236.5 Z M 205.5,235.5 C 203.071,238.026 200.071,238.859 196.5,238C 199.432,236.855 202.432,236.022 205.5,235.5 Z M 173.5,237.5 C 181.025,238.47 188.359,238.803 195.5,238.5C 194.009,239.244 192.509,239.91 191,240.5C 186.606,240.439 182.272,240.439 178,240.5C 175.974,240.085 174.474,239.085 173.5,237.5 Z"/></g>
<g><path  d="M 123.5,199.5 C 122.432,211.483 122.432,223.483 123.5,235.5C 120.161,235.11 116.827,234.61 113.5,234C 112.944,233.617 112.611,233.117 112.5,232.5C 115.389,233.008 118.222,233.675 121,234.5C 121.333,223.833 121.667,213.167 122,202.5C 122.232,201.263 122.732,200.263 123.5,199.5 Z"/></g>
<g><path  d="M 212.5,207.5 C 213.609,207.557 214.609,207.89 215.5,208.5C 215.5,208.833 215.5,209.167 215.5,209.5C 213.821,209.715 212.821,209.048 212.5,207.5 Z"/></g>
<g><path  d="M 232.5,207.5 C 232.5,208.833 231.833,209.5 230.5,209.5C 230.5,208.167 231.167,207.5 232.5,207.5 Z"/></g>
<g><path  d="M 45.5,208.5 C 45.5,208.167 45.5,207.833 45.5,207.5C 61.8316,208.78 78.165,208.78 94.5,207.5C 87.4159,209.304 80.0826,210.304 72.5,210.5C 63.4949,209.833 54.4949,209.166 45.5,208.5 Z"/></g>
<g><path  d="M 189.5,192.5 C 187.701,198.174 187.035,203.841 187.5,209.5C 177.867,211.115 168.534,210.449 159.5,207.5C 168.387,208.96 177.387,209.626 186.5,209.5C 186.334,205.154 186.501,200.821 187,196.5C 187.122,194.563 187.955,193.23 189.5,192.5 Z"/></g>
<g><path  d="M 91.5,219.5 C 87.3454,216.425 82.6787,215.092 77.5,215.5C 78.436,218.959 80.436,221.793 83.5,224C 83.2716,224.399 82.9382,224.565 82.5,224.5C 72.154,217.103 73.154,213.936 85.5,215C 88.1767,215.814 90.1767,217.314 91.5,219.5 Z"/></g>
<g><path  d="M 218.5,226.5 C 220.167,226.5 221.833,226.5 223.5,226.5C 223.5,226.833 223.5,227.167 223.5,227.5C 221.708,227.366 220.042,227.699 218.5,228.5C 218.5,227.833 218.5,227.167 218.5,226.5 Z"/></g>
<g><path  d="M 162.5,234.5 C 163.492,234.328 164.158,234.662 164.5,235.5C 163.833,235.5 163.5,235.833 163.5,236.5C 162.508,236.672 161.842,236.338 161.5,235.5C 162.167,235.5 162.5,235.167 162.5,234.5 Z"/></g>
<g><path  d="M 114.5,249.5 C 124.512,250.551 134.512,250.551 144.5,249.5C 142.782,250.224 140.948,250.891 139,251.5C 133.333,251.5 127.667,251.5 122,251.5C 119.393,250.877 116.893,250.21 114.5,249.5 Z"/></g>
<g><path  d="M 161.5,252.5 C 162.209,253.404 163.209,253.737 164.5,253.5C 165.209,254.404 166.209,254.737 167.5,254.5C 171.287,255.918 175.287,256.918 179.5,257.5C 182.833,257.5 186.167,257.5 189.5,257.5C 192.99,256.743 196.323,255.743 199.5,254.5C 203.816,254.172 207.816,252.839 211.5,250.5C 212.478,250.977 213.311,251.643 214,252.5C 214.405,249.22 215.905,246.72 218.5,245C 225.123,244.676 231.456,243.51 237.5,241.5C 238.791,241.737 239.791,241.404 240.5,240.5C 242.38,240.771 243.713,240.104 244.5,238.5C 246.787,238.276 248.953,237.609 251,236.5C 254.931,243.138 253.764,248.971 247.5,254C 237.744,259.322 227.41,260.822 216.5,258.5C 215.846,256.885 215.346,255.218 215,253.5C 215.59,259.044 213.757,263.544 209.5,267C 205.952,268.941 202.286,270.607 198.5,272C 189.167,272.667 179.833,272.667 170.5,272C 164.085,270.876 158.585,268.043 154,263.5C 152.621,258.964 152.121,254.297 152.5,249.5C 155.634,250.241 158.634,251.241 161.5,252.5 Z M 167.5,254.5 C 172.167,254.833 176.833,255.167 181.5,255.5C 180.833,256.167 180.167,256.833 179.5,257.5C 175.287,256.918 171.287,255.918 167.5,254.5 Z M 199.5,254.5 C 196.323,255.743 192.99,256.743 189.5,257.5C 188.167,256.833 186.833,256.167 185.5,255.5C 190.181,255.331 194.848,254.998 199.5,254.5 Z"/></g>
<g><path  d="M 181.5,255.5 C 181.833,255.5 182.167,255.5 182.5,255.5C 182.833,256.833 183.167,256.833 183.5,255.5C 184.167,255.5 184.833,255.5 185.5,255.5C 186.833,256.167 188.167,256.833 189.5,257.5C 186.167,257.5 182.833,257.5 179.5,257.5C 180.167,256.833 180.833,256.167 181.5,255.5 Z"/></g>
</svg>
