<svg xmlns="http://www.w3.org/2000/svg" fill="currentColor" style="shape-rendering:geometricPrecision;text-rendering:geometricPrecision;image-rendering:optimizeQuality;fill-rule:evenodd;clip-rule:evenodd" viewBox="0 0 256 276"><path d="M248.5 103.5a442.848 442.848 0 0 0 2 26 134.081 134.081 0 0 0-1 20 34.033 34.033 0 0 1-1.5 8c-2.253 1.689-4.086 3.689-5.5 6-1.527-.073-2.527.594-3 2-.992-.172-1.658.162-2 1-.992-.172-1.658.162-2 1h-1c-.597-.235-.93-.735-1-1.5 2.247-11.158 3.58-22.658 4-34.5a72.367 72.367 0 0 1-12-.5c-2.023-3.183-2.523-6.683-1.5-10.5l1.5-1.5a74.086 74.086 0 0 0 12-1.5c-2.714-16.2-7.88-31.534-15.5-46-.804-1.305-1.971-1.971-3.5-2a95.13 95.13 0 0 1-18 6c-2.412.094-4.245-.906-5.5-3-.061 5.319-1.061 10.652-3 16-4.964 2.73-9.297 1.73-13-3a885.253 885.253 0 0 1-48.5 51.5c-3 2-6 2-9 0a420.258 420.258 0 0 0-19-15.5 441.916 441.916 0 0 0-25 25h-2a165.09 165.09 0 0 1-14 12.5c-2.31.497-4.643.663-7 .5-5.297-2.266-7.13-6.266-5.5-12 5.044-8.051 11.211-15.217 18.5-21.5-.667-.667-1.333-.667-2 0a75.967 75.967 0 0 1-14 11.5l-2-1a66.751 66.751 0 0 0-2-5.5 8.43 8.43 0 0 0-4-.5h-26c-.295 2.235.039 4.235 1 6a231.004 231.004 0 0 0 4 30 31.12 31.12 0 0 0-2 2c-1.599.268-2.932-.066-4-1a4.934 4.934 0 0 0 3-.5 10.136 10.136 0 0 0-4-1.5c-3.689-2.529-6.522-5.862-8.5-10-9.495-51.472 5.671-93.972 45.5-127.5 39.56-28.552 81.893-33.219 127-14 37.498 18.664 60.498 48.497 69 89.5Zm-129-85c1.193.47 1.86 1.47 2 3-.12 16.964-.12 34.297 0 52-6.99-.5-13.99-.832-21-1a623.07 623.07 0 0 1-28-5 40.516 40.516 0 0 1 3.5-12c6.494-12.815 15.661-23.315 27.5-31.5a64.955 64.955 0 0 1 16-5.5Zm-48 103v-3h-10c.18-13.57 2.847-26.904 8-40a90.591 90.591 0 0 0 29 5c2.331.817 4.831 1.484 7.5 2a259.662 259.662 0 0 1 15.5 0c-.324 6.854.009 13.521 1 20 1.101 1.098 2.434 1.265 4 .5 6.428-5.357 9.094-12.19 8-20.5 9.487 1.521 16.154-2.145 20-11-6.634-.997-13.3-1.33-20-1-.167-18.336 0-36.67.5-55 16.986 2.745 29.486 11.745 37.5 27 4.428 4.221 8.428 3.888 12-1a85.26 85.26 0 0 0-14-18.5c17.35 6.867 31.683 17.867 43 33a145.943 145.943 0 0 0-17.5 7.5 113.214 113.214 0 0 0-2-14c-1.066-1.6-2.566-2.6-4.5-3-12.086 1.863-23.919 5.196-35.5 10-.667 1.333-.667 2.667 0 4l8.5 8.5a1050.774 1050.774 0 0 1-37 40c-1.408.315-2.741-.018-4-1l-16-14a12.5 12.5 0 0 0-7 0 971.494 971.494 0 0 0-27 24.5Zm9-95a2.428 2.428 0 0 1 2 .5c-9.25 11.272-16.917 23.605-23 37a72.292 72.292 0 0 1-17-5.5 148.168 148.168 0 0 1 17-18.5 176.7 176.7 0 0 1 21-13.5Zm-47 44a407.582 407.582 0 0 1 22 6 231.637 231.637 0 0 0-7 42h-30c2.177-16.986 7.177-32.986 15-48Zm131 69c3.149-.085 5.816.915 8 3-2.943-.48-5.61-1.48-8-3Zm8 3c1.527-.073 2.527.594 3 2-1.527.073-2.527-.594-3-2Zm3 2c1.527-.073 2.527.594 3 2-1.527.073-2.527-.594-3-2Zm-100 2h2c-.333 1-1 1.667-2 2v-2Z"/><path d="M119.5 18.5c.709-.904 1.709-1.237 3-1v57c-7.008.166-14.008 0-21-.5-.556-.383-.889-.883-1-1.5 7.01.168 14.01.5 21 1-.12-17.703-.12-35.036 0-52-.14-1.53-.807-2.53-2-3ZM98.5 83.5c8.017.001 16.017.335 24 1v21c-.991-6.479-1.324-13.146-1-20a259.662 259.662 0 0 0-15.5 0c-2.669-.516-5.169-1.183-7.5-2ZM218.5 88.5c.617.11 1.117.444 1.5 1a436.259 436.259 0 0 1 0 70c-3.291 3.227-7.291 4.894-12 5a19.522 19.522 0 0 0-7.5-1c-.342-.838-1.008-1.172-2-1 0-.667-.333-1-1-1-.342-.838-1.008-1.172-2-1 0-.667-.333-1-1-1 0-.667-.333-1-1-1v-1c-.167-22.336 0-44.669.5-67l1.5-1.5c7.659-.5 15.326-.666 23-.5Z"/><path d="M218.5 88.5c-7.674-.166-15.341 0-23 .5l-1.5 1.5c-.5 22.331-.667 44.664-.5 67a772.829 772.829 0 0 1-.5-68 6.977 6.977 0 0 1 3.5-2.5 90.496 90.496 0 0 1 19 0c1.237.232 2.237.732 3 1.5ZM248.5 103.5a114.599 114.599 0 0 1 3 16.5c-.02 6.47-.02 12.97 0 19.5a182.023 182.023 0 0 1-2 10 134.081 134.081 0 0 1 1-20 442.848 442.848 0 0 1-2-26ZM184.5 149.5l-6-3c-.473-1.406-1.473-2.073-3-2-.473-1.406-1.473-2.073-3-2-2.184-2.085-4.851-3.085-8-3a29.01 29.01 0 0 0-4.5-3 203.912 203.912 0 0 0-1.5-19c.414-2.419 1.414-4.419 3-6a95.223 95.223 0 0 1 22-.5c.916.374 1.75.874 2.5 1.5l.5 18.5c-.004 6.538-.67 12.705-2 18.5Z"/><path d="M184.5 149.5c1.33-5.795 1.996-11.962 2-18.5l-.5-18.5a9.454 9.454 0 0 0-2.5-1.5 95.223 95.223 0 0 0-22 .5c.111-.617.444-1.117 1-1.5a121.19 121.19 0 0 1 22 0 6.978 6.978 0 0 1 3.5 2.5c.5 12.996.667 25.996.5 39-1.88.271-3.213-.396-4-2ZM43.5 130.5c-8.15.993-16.483 1.326-25 1v5c-.961-1.765-1.295-3.765-1-6h26Z"/><path d="M164.5 139.5c2.39 1.52 5.057 2.52 8 3 .473 1.406 1.473 2.073 3 2 .473 1.406 1.473 2.073 3 2a93.637 93.637 0 0 0 10 9.5 19.177 19.177 0 0 0 5 2.5c.667 0 1 .333 1 1 .667 0 1 .333 1 1 .342.838 1.008 1.172 2 1 .667 0 1 .333 1 1 .342.838 1.008 1.172 2 1 6.692 3.895 14.025 6.229 22 7 4.352-.159 8.352-1.159 12-3h1c.992.172 1.658-.162 2-1 .992.172 1.658-.162 2-1 1.527.073 2.527-.594 3-2a25.497 25.497 0 0 0 7-5c.65-.304 1.317-.637 2-1 1.063 6.385.729 12.718-1 19 .047 3.073-1.119 5.406-3.5 7-17.462-7.042-34.629-6.542-51.5 1.5a12.14 12.14 0 0 1-4.5 3.5 28.208 28.208 0 0 1-1.5 4c-1.545.73-2.378 2.063-2.5 4a84.902 84.902 0 0 0-.5 13c-9.113.126-18.113-.54-27-2-11.956-2.061-22.789-6.728-32.5-14-9.475 7.821-20.308 12.487-32.5 14a313.11 313.11 0 0 1-49 0c-5.333.333-5.333.667 0 1 4.744 1.942 9.744 3.442 15 4.5a123.174 123.174 0 0 0 22 13.5c.963-.47.963-1.137 0-2 .438.065.772-.101 1-.5-3.064-2.207-5.064-5.041-6-8.5 5.179-.408 9.845.925 14 4a102.027 102.027 0 0 1 10 7.5l11 5.5c.111.617.444 1.117 1 1.5 3.327.61 6.661 1.11 10 1.5a202.648 202.648 0 0 1 0-36c.691-1.522 1.858-2.522 3.5-3a31.633 31.633 0 0 1 5.5 4 104.106 104.106 0 0 1 1 34 186.555 186.555 0 0 0 14.5-3 3.943 3.943 0 0 1 2 1 64.218 64.218 0 0 1 0 16c-1.699.906-3.533 1.239-5.5 1a143.115 143.115 0 0 1-30 0c-30.627-3.23-56.46-16.23-77.5-39a4.932 4.932 0 0 1-.5-3 8.43 8.43 0 0 0 4-.5c-26.446-6.596-39.446-23.43-39-50.5 3.972 1.449 7.306 3.949 10 7.5a10.136 10.136 0 0 0 4 1.5l1 2c1.068.934 2.401 1.268 4 1 .418.722 1.084 1.222 2 1.5 4.852.815 9.519.648 14-.5a115.678 115.678 0 0 0 20-6 96.388 96.388 0 0 0 19-14v-1c1-.333 1.667-1 2-2 17.333-11.39 33.999-10.39 50 3 10.679-9.42 23.012-12.753 37-10Zm78 24c-.473 1.406-1.473 2.073-3 2 .473-1.406 1.473-2.073 3-2Zm-227 2c1.422.209 2.755.709 4 1.5a4.934 4.934 0 0 1-3 .5l-1-2Z"/><path d="M75.5 146.5v2c-1.333.333-1.333.667 0 1a96.388 96.388 0 0 1-19 14c.453-.958 1.12-1.792 2-2.5-1.558-.21-2.892-.71-4-1.5 2.357.163 4.69-.003 7-.5a165.09 165.09 0 0 0 14-12.5ZM250.5 176.5c1.729-6.282 2.063-12.615 1-19-.683.363-1.35.696-2 1 .683-1.676 2.017-2.343 4-2a98.432 98.432 0 0 1-.5 14c-.24 2.352-1.073 4.352-2.5 6ZM20.5 168.5a84.03 84.03 0 0 0 16 1c-4.481 1.148-9.148 1.315-14 .5-.916-.278-1.582-.778-2-1.5ZM244.5 238.5c-1.88-.271-3.213.396-4 2-1.291-.237-2.291.096-3 1a69.22 69.22 0 0 1-21 0c-1.1-3.942-1.267-7.942-.5-12 .671-.752 1.504-1.086 2.5-1 1.542-.801 3.208-1.134 5-1 4-.333 4-.667 0-1h-5c-1.322.17-2.489-.163-3.5-1a22.981 22.981 0 0 0-2 5 100.813 100.813 0 0 1-7.5 5 16.994 16.994 0 0 0 6.5-2 3.943 3.943 0 0 1 2 1c.667 4 .667 8 0 12-4.397 3.612-9.23 6.279-14.5 8-4.652.498-9.319.831-14 1h-4l-14-1c-.709-.904-1.709-1.237-3-1-.709-.904-1.709-1.237-3-1a72.667 72.667 0 0 1-7.5-7c-1.434-3.906-1.767-7.906-1-12a3.943 3.943 0 0 1 2-1 58.506 58.506 0 0 1 6.5 3c.342.838 1.008 1.172 2 1 2.814 1.596 5.814 2.096 9 1.5a110.146 110.146 0 0 0-8-2.5c-.342-.838-1.008-1.172-2-1-9.124-4.172-10.124-9.672-3-16.5a37.093 37.093 0 0 1 15-5 157.13 157.13 0 0 1 22 0 11.333 11.333 0 0 1-3.5-1.5c-.667-3-.667-6 0-9 1.32-.299 2.82-.466 4.5-.5-5.877-3.804-6.544-8.471-2-14 18.002-8.595 35.669-8.595 53 0 4.847 4.254 5.181 8.754 1 13.5.825.886 1.825 1.219 3 1a72.367 72.367 0 0 1-.5 12 11.532 11.532 0 0 1-3.5 4.5c1.884.216 3.551.883 5 2 1.363 7.995-1.637 13.829-9 17.5Zm-42-33c1.808-.009 3.475.491 5 1.5-2.035.599-3.701.099-5-1.5Zm37 0c1.879-.107 2.212.393 1 1.5-3.375.632-3.709.132-1-1.5Zm-76 31c0-.667.333-1 1-1 2.679.726 5.346 1.559 8 2.5-3.186.596-6.186.096-9-1.5Zm42-1c-2.429 2.526-5.429 3.359-9 2.5a45.8 45.8 0 0 1 9-2.5Zm-32 2c7.525.97 14.859 1.303 22 1a54.628 54.628 0 0 1-4.5 2 461.749 461.749 0 0 0-13 0c-2.026-.415-3.526-1.415-4.5-3ZM123.5 199.5a202.648 202.648 0 0 0 0 36c-3.339-.39-6.673-.89-10-1.5-.556-.383-.889-.883-1-1.5a76.16 76.16 0 0 1 8.5 2l1-32c.232-1.237.732-2.237 1.5-3Z"/><path d="M212.5 207.5a5.727 5.727 0 0 1 3 1v1c-1.679.215-2.679-.452-3-2ZM232.5 207.5c0 1.333-.667 2-2 2 0-1.333.667-2 2-2ZM45.5 208.5v-1a313.11 313.11 0 0 0 49 0c-7.084 1.804-14.417 2.804-22 3l-27-2ZM189.5 192.5c-1.799 5.674-2.465 11.341-2 17-9.633 1.615-18.966.949-28-2a153.163 153.163 0 0 0 27 2 84.902 84.902 0 0 1 .5-13c.122-1.937.955-3.27 2.5-4ZM91.5 219.5c-4.155-3.075-8.821-4.408-14-4 .936 3.459 2.936 6.293 6 8.5-.228.399-.562.565-1 .5-10.346-7.397-9.346-10.564 3-9.5 2.677.814 4.677 2.314 6 4.5ZM218.5 226.5h5v1c-1.792-.134-3.458.199-5 1v-2ZM162.5 234.5c.992-.172 1.658.162 2 1-.667 0-1 .333-1 1-.992.172-1.658-.162-2-1 .667 0 1-.333 1-1ZM114.5 249.5a143.115 143.115 0 0 0 30 0 61.16 61.16 0 0 1-5.5 2h-17a144.255 144.255 0 0 1-7.5-2ZM161.5 252.5c.709.904 1.709 1.237 3 1 .709.904 1.709 1.237 3 1 3.787 1.418 7.787 2.418 12 3h10a65.509 65.509 0 0 0 10-3c4.316-.328 8.316-1.661 12-4a7.248 7.248 0 0 1 2.5 2c.405-3.28 1.905-5.78 4.5-7.5 6.623-.324 12.956-1.49 19-3.5 1.291.237 2.291-.096 3-1 1.88.271 3.213-.396 4-2a16.994 16.994 0 0 0 6.5-2c3.931 6.638 2.764 12.471-3.5 17.5-9.756 5.322-20.09 6.822-31 4.5a28.043 28.043 0 0 1-1.5-5c.59 5.544-1.243 10.044-5.5 13.5a81.58 81.58 0 0 1-11 5c-9.333.667-18.667.667-28 0-6.415-1.124-11.915-3.957-16.5-8.5-1.379-4.536-1.879-9.203-1.5-14a52.174 52.174 0 0 1 9 3Zm6 2 14 1-2 2c-4.213-.582-8.213-1.582-12-3Zm32 0a65.509 65.509 0 0 1-10 3l-4-2c4.681-.169 9.348-.502 14-1Z"/><path d="M181.5 255.5h1c.333 1.333.667 1.333 1 0h2l4 2h-10l2-2Z"/></svg>