<svg xmlns="http://www.w3.org/2000/svg" width="391" height="125" fill="none"><path fill="#FFC300" d="M249.406 0c-2.657 0-5.331 1.02-7.356 3.047-4.067 4.067-4.067 10.662 0 14.714l44.264 44.272-44.264 44.271c-4.229 4.23-4.05 11.182.502 15.201 4.164 3.662 10.548 3.192 14.469-.73l50.324-50.332c4.634-4.635 4.634-12.154 0-16.805L256.762 3.047A10.394 10.394 0 0 0 249.406 0Z"/><path fill="#FFC300" d="M289.182 0c-2.657 0-5.33 1.02-7.356 3.047-4.066 4.067-4.066 10.662 0 14.714l44.265 44.272-44.265 44.271c-4.228 4.23-4.05 11.182.503 15.201 4.164 3.662 10.547 3.192 14.468-.73l50.324-50.332c4.634-4.635 4.634-12.154 0-16.805L296.538 3.047A10.392 10.392 0 0 0 289.182 0Z"/><path fill="#FFC300" d="M328.942 0c-2.657 0-5.33 1.02-7.356 3.047-4.066 4.067-4.066 10.662 0 14.714l44.265 44.272-44.265 44.271c-4.228 4.23-4.05 11.182.503 15.201 4.164 3.662 10.547 3.192 14.468-.73l50.324-50.332c4.634-4.635 4.634-12.154 0-16.805L336.298 3.047A10.392 10.392 0 0 0 328.942 0Z"/><g fill="#E5E5E5" style="mix-blend-mode:multiply"><path d="m285.358 61.093.956.956-44.264 44.271c-4.229 4.23-4.051 11.182.502 15.201 4.164 3.662 10.548 3.192 14.469-.73l50.324-50.332c2.56-2.56 3.694-6.012 3.434-9.35h-25.421v-.017ZM325.118 61.093l.956.956-44.264 44.271c-4.229 4.23-4.05 11.182.502 15.201 4.164 3.662 10.548 3.192 14.469-.73l50.324-50.332c2.56-2.56 3.694-6.012 3.435-9.35h-25.422v-.017ZM364.895 61.093l.956.956-44.265 44.271c-4.228 4.23-4.05 11.182.503 15.201 4.164 3.662 10.547 3.192 14.468-.73l50.324-50.332c2.56-2.56 3.694-6.012 3.435-9.35h-25.421v-.017Z"/></g><path fill="#FFC300" d="M10.406 0C7.749 0 5.076 1.02 3.05 3.047c-4.067 4.067-4.067 10.662 0 14.714l44.264 44.272L3.05 106.303c-4.229 4.23-4.05 11.182.502 15.201 4.164 3.662 10.548 3.192 14.469-.73l50.324-50.332c4.634-4.635 4.634-12.154 0-16.805L17.762 3.047A10.392 10.392 0 0 0 10.406 0Z"/><path fill="#FFC300" d="M50.182 0c-2.657 0-5.33 1.02-7.356 3.047-4.066 4.067-4.066 10.662 0 14.714l44.265 44.272-44.265 44.271c-4.229 4.23-4.05 11.182.503 15.201 4.163 3.662 10.547 3.192 14.468-.73l50.324-50.332c4.634-4.635 4.634-12.154 0-16.805L57.538 3.047A10.392 10.392 0 0 0 50.182 0Z"/><path fill="#FFC300" d="M89.942 0c-2.657 0-5.33 1.02-7.356 3.047-4.066 4.067-4.066 10.662 0 14.714l44.265 44.272-44.265 44.271c-4.228 4.23-4.05 11.182.503 15.201 4.164 3.662 10.547 3.192 14.468-.73l50.324-50.332c4.634-4.635 4.634-12.154 0-16.805L97.298 3.047A10.392 10.392 0 0 0 89.942 0Z"/><g fill="#E5E5E5" style="mix-blend-mode:multiply"><path d="m46.358 61.093.956.956L3.05 106.32c-4.229 4.23-4.05 11.182.502 15.201 4.164 3.662 10.548 3.192 14.469-.73l50.324-50.332c2.56-2.56 3.694-6.012 3.434-9.35H46.36v-.017ZM86.118 61.093l.956.956L42.81 106.32c-4.229 4.23-4.05 11.182.502 15.201 4.164 3.662 10.548 3.192 14.469-.73l50.324-50.332c2.56-2.56 3.694-6.012 3.435-9.35H86.118v-.017ZM125.895 61.093l.956.956-44.265 44.271c-4.228 4.23-4.05 11.182.503 15.201 4.163 3.662 10.547 3.192 14.468-.73l50.324-50.332c2.56-2.56 3.694-6.012 3.435-9.35h-25.421v-.017Z"/></g><path fill="#FFC300" d="M129.406 0c-2.657 0-5.331 1.02-7.356 3.047-4.067 4.067-4.067 10.662 0 14.714l44.264 44.272-44.264 44.271c-4.229 4.23-4.05 11.182.502 15.201 4.164 3.662 10.548 3.192 14.469-.73l50.324-50.332c4.634-4.635 4.634-12.154 0-16.805L136.762 3.047A10.394 10.394 0 0 0 129.406 0Z"/><path fill="#FFC300" d="M169.182 0c-2.657 0-5.33 1.02-7.356 3.047-4.066 4.067-4.066 10.662 0 14.714l44.265 44.272-44.265 44.271c-4.228 4.23-4.05 11.182.503 15.201 4.164 3.662 10.547 3.192 14.468-.73l50.324-50.332c4.634-4.635 4.634-12.154 0-16.805L176.538 3.047A10.392 10.392 0 0 0 169.182 0Z"/><path fill="#FFC300" d="M208.942 0c-2.657 0-5.33 1.02-7.356 3.047-4.066 4.067-4.066 10.662 0 14.714l44.265 44.272-44.265 44.271c-4.228 4.23-4.05 11.182.503 15.201 4.164 3.662 10.547 3.192 14.468-.73l50.324-50.332c4.634-4.635 4.634-12.154 0-16.805L216.298 3.047A10.392 10.392 0 0 0 208.942 0Z"/><g fill="#E5E5E5" style="mix-blend-mode:multiply"><path d="m165.358 61.093.956.956-44.264 44.271c-4.229 4.23-4.051 11.182.502 15.201 4.164 3.662 10.548 3.192 14.469-.73l50.324-50.332c2.56-2.56 3.694-6.012 3.434-9.35h-25.421v-.017ZM205.118 61.093l.956.956-44.264 44.271c-4.229 4.23-4.05 11.182.502 15.201 4.164 3.662 10.548 3.192 14.469-.73l50.324-50.332c2.56-2.56 3.694-6.012 3.435-9.35h-25.422v-.017ZM244.895 61.093l.956.956-44.265 44.271c-4.228 4.23-4.05 11.182.503 15.201 4.164 3.662 10.547 3.192 14.468-.73l50.324-50.332c2.56-2.56 3.694-6.012 3.435-9.35h-25.421v-.017Z"/></g></svg>